<svg width="202" height="513" viewBox="0 0 202 513" fill="none" xmlns="http://www.w3.org/2000/svg">
<path d="M0.5 230.5H42.5V289.5L85 316.5H119L159.5 289.5V230.5H201V495H159.5V446.5L119 405H85L42.5 446.5V495H0.5V230.5Z" fill="#3B3B3B"/>
<path d="M159.5 289.5V230.5H201V495H159.5V446.5M159.5 289.5L119 316.5H85L42.5 289.5M159.5 289.5V446.5M42.5 289.5V230.5H0.5V495H42.5V446.5M42.5 289.5V446.5M42.5 446.5L85 405H119L159.5 446.5" stroke="black"/>
<path d="M128 297H193.5V389.5V401.5V496L187 505.5L175.5 512H25.5L14.5 505.5L8.5 496V402.5V399.5H1V380.5H69V389.5H128V297Z" fill="#DD9547"/>
<path d="M193.5 389.5V297H128V389.5M193.5 389.5H128M193.5 389.5V496L187 505.5L175.5 512H25.5L14.5 505.5L8.5 496V402.5M128 389.5H69M69 389.5V399.5H8.5M69 389.5V380.5H1V399.5H8.5M8.5 399.5V402.5M8.5 402.5L193.5 401.5" stroke="black"/>
<path d="M128.5 390.5H69V374.5V316H87V275.5V189.5V92H59.5L62.5 0.5H137.5L142 92H112.5V189.5V275.5V316V342H122V361.5H80.5V342H87V316H69V374.5H128.5V390.5Z" fill="#DD9547"/>
<path d="M193.5 445.5H8.5M69 374.5H128.5V390.5H69V374.5ZM69 374.5V316H128.5M100 353.5L99.75 92M99.75 92H112.5V189.5M99.75 92H87V189.5M87 275.5V350.5H112.5V275.5M87 275.5H112.5M87 275.5V189.5M112.5 275.5V189.5M112.5 189.5H87M80.5 361.5H122V342H80.5V361.5ZM142 92H59.5L62.5 0.5H137.5L142 92Z" stroke="black"/>
<path d="M0.5 381H69V301.5H0.5V381Z" fill="#3B3B3B" stroke="black"/>
</svg>
